<svg fill="none" height="18" viewBox="0 0 84 18" width="84" xmlns="http://www.w3.org/2000/svg"><path d="m2.49022 1.2312 15.59778-.886473.6563 17.316573-18.7443-.291.412772-11.44963z" fill="#e03a26"/><g fill="#fff"><path d="m32.3058 7.52526v2.4361h-6.1376v5.26464h8.4925v2.4293h-12.2076v-17.323269h11.9775v2.436089h-8.2624v4.75714z"/><path d="m48.9321 17.6549h-10.9624v-17.316521h3.7083v14.860121h7.2541z"/><path d="m65.0035 12.3835c-.8662 3.6067-3.891 5.6165-7.1797 5.6165-1.9692 0-3.9654-.5752-5.3526-1.9015-1.4887-1.4008-2.4429-3.6541-2.4429-7.2 0-3.06542.873-5.38647 2.4158-6.88872 1.4008-1.319554 3.2481-2.00978 5.4203-2.00978 3.4308 0 6.1917 1.65789 6.9429 5.40677l-3.7286.33157c-.4669-2.07744-1.3872-3.27518-3.2346-3.27518-2.2601 0-4.006 1.79323-4.006 6.57067 0 4.77747 1.8541 6.52327 3.9654 6.52327s3.1128-1.7323 3.4308-3.5932l3.776.4331z"/><path d="m76.5069 6.53687c-.3992-1.31955-.7917-2.59173-1.1706-4.12782h-.1895c-.3654 1.52256-.7647 2.84888-1.1436 4.12782l-1.2181 4.12783h4.9399zm-4.5203 6.55713-1.3466 4.5677h-4.0331l6.1376-17.323321h5.0278l6.1444 17.323321h-4.0263l-1.3737-4.5677z"/></g></svg>